<svg xmlns="http://www.w3.org/2000/svg" width="167.599" height="32" viewBox="0 0 167.599 32">
  <g id="Group_129719" data-name="Group 129719" transform="translate(0 0)">
    <rect  width="6.686" height="30.263" transform="translate(33.826 1.737)" fill="#f24d2b"/>
    <rect  width="10.382" height="6.687" transform="translate(51.619 14.007)" fill="#fafafa"/>
    <path d="M292.263,0l-3.337,6.776,3.294,6.771h0l2.093,4.3.435.895.773,1.59h-6.566l-3.333-6.852L276.5,32h7.078l2.344-4.819.5-1.157h11.628l.5,1.157L300.9,32h7.121Z" transform="translate(-170.324 0)" fill="#fafafa"/>
    <path  d="M15.761,0,12.424,6.776l3.294,6.771h0l2.093,4.3.435.895.773,1.59H12.453L9.12,13.483,0,32H7.077L9.421,27.18l.5-1.157H21.553l.5,1.157L24.4,32h7.12Z" transform="translate(0 0)" fill="#f24d2b"/>
    <path  d="M205.44,17.671,189.464,1.695V8.148h0v1.9l0,0,11.8,11.8,4.176,4.175,4.175-4.175,5.377-5.377V33.044h6.426V8.148h0V1.695Z" transform="translate(-116.707 -1.044)" fill="#fafafa"/>
    <path   d="M189.462,59.832h6.426V51.608l-6.426-6.426Z" transform="translate(-116.708 -27.832)" fill="#fafafa"/>
    <path   d="M362.729,67.2h7.382l3.045-4.535-3.706-5.518Z" transform="translate(-223.439 -35.205)" fill="#fafafa"/>
    <path   d="M383.938,4.522l-6.079,9.092L371.78,4.522h-7.468l3.077,4.583h.012l2.778,4.155,3.967,5.908-.008.013,3.705,5.542.016-.024,6.773,10.087h7.381L381.572,19.168l9.833-14.646Z" transform="translate(-224.414 -2.786)" fill="#fafafa"/>
  </g>
</svg>